# xmcd
#
# Track frame offsets:
#	150
#	10784
#	25022
#	40066
#	50572
#	62285
#	75287
#	94210
#	105189
#	118488
#	130541
#	149292
#
# Disc length: 2141 seconds
#
# Revision: 0
# Processed by: cddbd v1.4PL0 Copyright (c) Steve Scherf et al.
# Submitted via: dBpowerAMP V4.0
#
DISCID=89085b0c
DTITLE=The Benning Brothers with Stan Rogers - King Sound
DYEAR=2000
DGENRE=Country
TTITLE0=Garner's Polka
TTITLE1=Born To Lose
TTITLE2=Lady Of The Desert
TTITLE3=When It's Lamp Lighting Time In The Valley
TTITLE4=Djilim Bardi
TTITLE5=Back Home
TTITLE6=Great Sandy Desert
TTITLE7=Wheels 
TTITLE8=The Shadow Of A Doubt
TTITLE9=Relics Of The Past
TTITLE10=Kimberley Country Singers
TTITLE11=San Antonio Rose
EXTD=
EXTT0=
EXTT1=
EXTT2=
EXTT3=
EXTT4=
EXTT5=
EXTT6=
EXTT7=
EXTT8=
EXTT9=
EXTT10=
EXTT11=
PLAYORDER=
